<?xml version="1.0" standalone="no"?>
<!DOCTYPE svg PUBLIC "-//W3C//DTD SVG 20010904//EN"
 "http://www.w3.org/TR/2001/REC-SVG-20010904/DTD/svg10.dtd">
<svg version="1.0" xmlns="http://www.w3.org/2000/svg"
 width="93.000000pt" height="93.000000pt" viewBox="0 0 93.000000 93.000000"
 preserveAspectRatio="xMidYMid meet">
<metadata>
Created by potrace 1.14, written by Peter Selinger 2001-2017
</metadata>
<g transform="translate(0.000000,93.000000) scale(0.100000,-0.100000)"
fill="#000000" stroke="none">
<path d="M306 779 c-155 -15 -248 -89 -288 -230 -30 -108 -22 -191 24 -256 43
-60 106 -109 161 -125 23 -7 78 -12 122 -12 107 1 433 22 467 30 47 11 104 73
122 133 21 71 21 163 0 204 -50 97 -198 235 -276 258 -39 11 -207 10 -332 -2z"/>
</g>
</svg>
